<svg id="SvgjsSvg1066" width="5000" height="4051" xmlns="http://www.w3.org/2000/svg" version="1.1" xmlns:xlink="http://www.w3.org/1999/xlink" xmlns:svgjs="http://svgjs.com/svgjs" viewBox="0 0 302.71875 245.265625"><defs id="SvgjsDefs1067"></defs><g id="SvgjsG1069" transform="rotate(0 151.3515625 92.5)"><svg height="185" viewBox="0 0 136.80899047851562 162.25100708007812" xmlns="http://www.w3.org/2000/svg" version="1.1" xmlns:xlink="http://www.w3.org/1999/xlink" xmlns:svgjs="http://svgjs.com/svgjs" preserveAspectRatio="none" width="155.984375" x="73.359375" y="0"><g><svg data-name="Layer 1" xmlns="http://www.w3.org/2000/svg" width="136.80899047851562" height="162.25100708007812" viewBox="30.93000030517578 18.447999954223633 136.80899047851562 162.25100708007812" data-type="color">
    <g>
        <path d="M160.445 50.193l-.203 87.699-79.099 38.197 7.227 4.568 79.026-38.161.206-87.778-7.157-4.525z" data-color="1" fill="#4dc6ff"></path>
        <path d="M142.495 38.845l-7.157-4.524-.203 87.699-79.099 38.196 7.227 4.569 79.026-38.162.206-87.778z" data-color="1" fill="#4dc6ff"></path>
        <path d="M117.388 22.973l-7.156-4.525-.204 87.699-79.098 38.197 7.226 4.568 79.027-38.161.205-87.778z" data-color="1" fill="#4dc6ff"></path>
        <path d="M160.512 50.236L81.485 88.397l-.205 87.778 7.157 4.524.203-87.698 79.099-38.197-7.227-4.568z" data-color="2" fill="#10a76a"></path>
        <path d="M135.405 34.363L56.379 72.525l-.206 87.778 7.157 4.524.203-87.699 79.099-38.196-7.227-4.569z" data-color="2" fill="#10a76a"></path>
        <path d="M110.298 18.491L31.272 56.652l-.205 87.778 7.156 4.524.203-87.698 79.099-38.197-7.227-4.568z" data-color="2" fill="#10a76a"></path>
    </g>
</svg></g><defs id="SvgjsDefs1068"></defs></svg></g><g id="SvgjsG1071" transform="rotate(0 151.359375 227.1328125)"><svg xmlns="http://www.w3.org/2000/svg" xmlns:xlink="http://www.w3.org/1999/xlink" width="302.71875" viewBox="2.180000066757202 8.600000381469727 302.7300109863281 30.26999855041504" overflow="visible" style="overflow: visible;" transform="" version="1.1" xmlns:svgjs="http://svgjs.com/svgjs" preserveAspectRatio="none" height="30.265625" x="0" y="212" fill="#000000" stroke="none"><path stroke="none" fill="#c8c8c8" d="M27.39 12.73L27.39 35.63L22.82 35.63L22.82 29.44L6.75 29.44L6.75 35.63L2.18 35.63L2.18 23.03L2.18 23.03Q2.18 20.27 3.13 17.95L3.13 17.95L3.13 17.95Q4.08 15.63 5.77 13.96L5.77 13.96L5.77 13.96Q7.45 12.29 9.76 11.36L9.76 11.36L9.76 11.36Q12.06 10.42 14.78 10.42L14.78 10.42L25.08 10.42L25.08 10.42Q25.56 10.42 25.98 10.60L25.98 10.60L25.98 10.60Q26.40 10.78 26.72 11.09L26.72 11.09L26.72 11.09Q27.04 11.41 27.21 11.83L27.21 11.83L27.21 11.83Q27.39 12.25 27.39 12.73L27.39 12.73ZM6.75 23.03L6.75 24.87L22.82 24.87L22.82 14.99L14.78 14.99L14.78 14.99Q14.57 14.99 13.90 15.06L13.90 15.06L13.90 15.06Q13.22 15.12 12.33 15.36L12.33 15.36L12.33 15.36Q11.44 15.61 10.46 16.12L10.46 16.12L10.46 16.12Q9.47 16.63 8.65 17.53L8.65 17.53L8.65 17.53Q7.82 18.42 7.29 19.77L7.29 19.77L7.29 19.77Q6.75 21.11 6.75 23.03L6.75 23.03ZM52.88 16.63L52.88 33.33L52.88 33.33Q52.88 33.82 52.70 34.24L52.70 34.24L52.70 34.24Q52.52 34.66 52.22 34.97L52.22 34.97L52.22 34.97Q51.91 35.28 51.50 35.46L51.50 35.46L51.50 35.46Q51.08 35.63 50.61 35.63L50.61 35.63L40.27 35.63L40.27 35.63Q39.43 35.63 38.47 35.44L38.47 35.44L38.47 35.44Q37.51 35.24 36.58 34.81L36.58 34.81L36.58 34.81Q35.65 34.38 34.78 33.72L34.78 33.72L34.78 33.72Q33.91 33.06 33.26 32.12L33.26 32.12L33.26 32.12Q32.61 31.18 32.21 29.95L32.21 29.95L32.21 29.95Q31.82 28.72 31.82 27.18L31.82 27.18L31.82 16.63L36.39 16.63L36.39 27.18L36.39 27.18Q36.39 28.07 36.69 28.78L36.69 28.78L36.69 28.78Q37.00 29.50 37.53 30.01L37.53 30.01L37.53 30.01Q38.06 30.52 38.77 30.79L38.77 30.79L38.77 30.79Q39.48 31.06 40.31 31.06L40.31 31.06L48.30 31.06L48.30 16.63L52.88 16.63ZM74.44 16.63L74.44 21.20L66.46 21.20L66.46 35.63L61.84 35.63L61.84 21.20L55.90 21.20L55.90 16.63L61.84 16.63L61.84 10.42L66.46 10.42L66.46 16.63L74.44 16.63ZM98.05 23.03L98.05 29.21L98.05 29.21Q98.05 30.39 97.75 31.33L97.75 31.33L97.75 31.33Q97.45 32.27 96.96 32.99L96.96 32.99L96.96 32.99Q96.47 33.70 95.82 34.20L95.82 34.20L95.82 34.20Q95.17 34.70 94.46 35.02L94.46 35.02L94.46 35.02Q93.74 35.33 93.01 35.48L93.01 35.48L93.01 35.48Q92.29 35.63 91.63 35.63L91.63 35.63L83.39 35.63L83.39 35.63Q82.44 35.63 81.32 35.30L81.32 35.30L81.32 35.30Q80.19 34.96 79.23 34.20L79.23 34.20L79.23 34.20Q78.28 33.43 77.63 32.21L77.63 32.21L77.63 32.21Q76.99 30.99 76.99 29.21L76.99 29.21L76.99 23.03L76.99 23.03Q76.99 21.27 77.63 20.05L77.63 20.05L77.63 20.05Q78.28 18.83 79.23 18.06L79.23 18.06L79.23 18.06Q80.19 17.30 81.32 16.96L81.32 16.96L81.32 16.96Q82.44 16.63 83.39 16.63L83.39 16.63L91.63 16.63L91.63 16.63Q93.39 16.63 94.62 17.26L94.62 17.26L94.62 17.26Q95.85 17.89 96.61 18.85L96.61 18.85L96.61 18.85Q97.37 19.81 97.71 20.94L97.71 20.94L97.71 20.94Q98.05 22.06 98.05 23.03L98.05 23.03ZM93.48 29.21L93.48 23.06L93.48 23.06Q93.48 22.11 93.01 21.66L93.01 21.66L93.01 21.66Q92.53 21.20 91.63 21.20L91.63 21.20L83.43 21.20L83.43 21.20Q82.51 21.20 82.04 21.67L82.04 21.67L82.04 21.67Q81.56 22.13 81.56 23.03L81.56 23.03L81.56 29.21L81.56 29.21Q81.56 30.11 82.04 30.59L82.04 30.59L82.04 30.59Q82.51 31.06 83.43 31.06L83.43 31.06L91.63 31.06L91.63 31.06Q92.57 31.06 93.02 30.59L93.02 30.59L93.02 30.59Q93.48 30.11 93.48 29.21L93.48 29.21ZM125.02 31.06L125.02 35.63L108.53 35.63L108.53 35.63Q107.89 35.63 107.17 35.48L107.17 35.48L107.17 35.48Q106.44 35.33 105.72 35.02L105.72 35.02L105.72 35.02Q105.01 34.70 104.36 34.20L104.36 34.20L104.36 34.20Q103.71 33.70 103.21 32.99L103.21 32.99L103.21 32.99Q102.71 32.27 102.41 31.33L102.41 31.33L102.41 31.33Q102.11 30.39 102.11 29.21L102.11 29.21L102.11 16.84L102.11 16.84Q102.11 16.21 102.26 15.48L102.26 15.48L102.26 15.48Q102.41 14.75 102.73 14.04L102.73 14.04L102.73 14.04Q103.04 13.32 103.55 12.67L103.55 12.67L103.55 12.67Q104.06 12.02 104.77 11.52L104.77 11.52L104.77 11.52Q105.49 11.02 106.42 10.72L106.42 10.72L106.42 10.72Q107.35 10.42 108.53 10.42L108.53 10.42L125.02 10.42L125.02 14.99L108.53 14.99L108.53 14.99Q107.63 14.99 107.16 15.47L107.16 15.47L107.16 15.47Q106.68 15.94 106.68 16.88L106.68 16.88L106.68 29.21L106.68 29.21Q106.68 30.09 107.17 30.58L107.17 30.58L107.17 30.58Q107.65 31.06 108.53 31.06L108.53 31.06L125.02 31.06ZM137.18 31.06L137.18 35.63L135.14 35.63L135.14 35.63Q134.16 35.63 133.04 35.30L133.04 35.30L133.04 35.30Q131.92 34.96 130.96 34.20L130.96 34.20L130.96 34.20Q129.99 33.43 129.36 32.21L129.36 32.21L129.36 32.21Q128.72 30.99 128.72 29.21L128.72 29.21L128.72 8.60L133.29 8.60L133.29 29.21L133.29 29.21Q133.29 30.06 133.82 30.56L133.82 30.56L133.82 30.56Q134.35 31.06 135.14 31.06L135.14 31.06L137.18 31.06ZM160.79 23.03L160.79 29.21L160.79 29.21Q160.79 30.39 160.49 31.33L160.49 31.33L160.49 31.33Q160.19 32.27 159.70 32.99L159.70 32.99L159.70 32.99Q159.21 33.70 158.55 34.20L158.55 34.20L158.55 34.20Q157.90 34.70 157.19 35.02L157.19 35.02L157.19 35.02Q156.48 35.33 155.75 35.48L155.75 35.48L155.75 35.48Q155.02 35.63 154.37 35.63L154.37 35.63L146.13 35.63L146.13 35.63Q145.18 35.63 144.05 35.30L144.05 35.30L144.05 35.30Q142.93 34.96 141.97 34.20L141.97 34.20L141.97 34.20Q141.01 33.43 140.37 32.21L140.37 32.21L140.37 32.21Q139.73 30.99 139.73 29.21L139.73 29.21L139.73 23.03L139.73 23.03Q139.73 21.27 140.37 20.05L140.37 20.05L140.37 20.05Q141.01 18.83 141.97 18.06L141.97 18.06L141.97 18.06Q142.93 17.30 144.05 16.96L144.05 16.96L144.05 16.96Q145.18 16.63 146.13 16.63L146.13 16.63L154.37 16.63L154.37 16.63Q156.13 16.63 157.36 17.26L157.36 17.26L157.36 17.26Q158.59 17.89 159.35 18.85L159.35 18.85L159.35 18.85Q160.10 19.81 160.44 20.94L160.44 20.94L160.44 20.94Q160.79 22.06 160.79 23.03L160.79 23.03ZM156.22 29.21L156.22 23.06L156.22 23.06Q156.22 22.11 155.74 21.66L155.74 21.66L155.74 21.66Q155.27 21.20 154.37 21.20L154.37 21.20L146.16 21.20L146.16 21.20Q145.25 21.20 144.77 21.67L144.77 21.67L144.77 21.67Q144.30 22.13 144.30 23.03L144.30 23.03L144.30 29.21L144.30 29.21Q144.30 30.11 144.77 30.59L144.77 30.59L144.77 30.59Q145.25 31.06 146.16 31.06L146.16 31.06L154.37 31.06L154.37 31.06Q155.30 31.06 155.76 30.59L155.76 30.59L155.76 30.59Q156.22 30.11 156.22 29.21L156.22 29.21ZM183.04 29.21L183.04 29.21L183.04 29.21Q183.04 30.39 182.74 31.33L182.74 31.33L182.74 31.33Q182.44 32.27 181.95 32.99L181.95 32.99L181.95 32.99Q181.46 33.70 180.81 34.20L180.81 34.20L180.81 34.20Q180.16 34.70 179.45 35.02L179.45 35.02L179.45 35.02Q178.73 35.33 178.00 35.48L178.00 35.48L178.00 35.48Q177.28 35.63 176.63 35.63L176.63 35.63L164.25 35.63L164.25 31.06L176.59 31.06L176.59 31.06Q177.52 31.06 178.00 30.59L178.00 30.59L178.00 30.59Q178.47 30.11 178.47 29.21L178.47 29.21L178.47 29.21Q178.38 27.39 176.63 27.39L176.63 27.39L169.54 27.39L169.54 27.39Q168.03 27.39 166.97 26.86L166.97 26.86L166.97 26.86Q165.92 26.33 165.26 25.54L165.26 25.54L165.26 25.54Q164.60 24.75 164.31 23.84L164.31 23.84L164.31 23.84Q164.02 22.92 164.02 22.13L164.02 22.13L164.02 22.13Q164.02 20.60 164.57 19.56L164.57 19.56L164.57 19.56Q165.11 18.51 165.94 17.86L165.94 17.86L165.94 17.86Q166.76 17.21 167.73 16.92L167.73 16.92L167.73 16.92Q168.70 16.63 169.54 16.63L169.54 16.63L180.77 16.63L180.77 21.20L169.58 21.20L169.58 21.20Q169.22 21.20 169.02 21.28L169.02 21.28L169.02 21.28Q168.82 21.36 168.72 21.49L168.72 21.49L168.72 21.49Q168.63 21.62 168.61 21.77L168.61 21.77L168.61 21.77Q168.59 21.92 168.59 22.06L168.59 22.06L168.59 22.06Q168.61 22.34 168.70 22.50L168.70 22.50L168.70 22.50Q168.79 22.66 168.92 22.73L168.92 22.73L168.92 22.73Q169.05 22.80 169.22 22.81L169.22 22.81L169.22 22.81Q169.38 22.82 169.54 22.82L169.54 22.82L176.63 22.82L176.63 22.82Q178.38 22.82 179.61 23.45L179.61 23.45L179.61 23.45Q180.84 24.08 181.60 25.04L181.60 25.04L181.60 25.04Q182.36 26.00 182.70 27.12L182.70 27.12L182.70 27.12Q183.04 28.25 183.04 29.21ZM206.68 22.92L206.68 22.92L206.68 22.92Q206.68 23.87 206.35 24.97L206.35 24.97L206.35 24.97Q206.02 26.07 205.27 27.01L205.27 27.01L205.27 27.01Q204.52 27.95 203.32 28.58L203.32 28.58L203.32 28.58Q202.11 29.21 200.39 29.21L200.39 29.21L192.15 29.21L192.15 24.87L200.39 24.87L200.39 24.87Q201.32 24.87 201.83 24.30L201.83 24.30L201.83 24.30Q202.34 23.73 202.34 22.89L202.34 22.89L202.34 22.89Q202.34 21.99 201.77 21.48L201.77 21.48L201.77 21.48Q201.20 20.97 200.39 20.97L200.39 20.97L192.15 20.97L192.15 20.97Q191.21 20.97 190.71 21.54L190.71 21.54L190.71 21.54Q190.20 22.11 190.20 22.96L190.20 22.96L190.20 29.34L190.20 29.34Q190.20 30.25 190.77 30.76L190.77 30.76L190.77 30.76Q191.34 31.27 192.18 31.27L192.18 31.27L200.39 31.27L200.39 35.63L192.15 35.63L192.15 35.63Q191.20 35.63 190.10 35.30L190.10 35.30L190.10 35.30Q189 34.96 188.06 34.22L188.06 34.22L188.06 34.22Q187.12 33.47 186.49 32.26L186.49 32.26L186.49 32.26Q185.85 31.06 185.85 29.34L185.85 29.34L185.85 22.92L185.85 22.92Q185.85 21.97 186.19 20.87L186.19 20.87L186.19 20.87Q186.52 19.78 187.27 18.83L187.27 18.83L187.27 18.83Q188.02 17.89 189.22 17.26L189.22 17.26L189.22 17.26Q190.42 16.63 192.15 16.63L192.15 16.63L200.39 16.63L200.39 16.63Q201.34 16.63 202.44 16.96L202.44 16.96L202.44 16.96Q203.54 17.30 204.48 18.04L204.48 18.04L204.48 18.04Q205.42 18.79 206.05 20.00L206.05 20.00L206.05 20.00Q206.68 21.20 206.68 22.92ZM213.61 30.02L210.88 38.87L207.67 38.87L209.30 30.02L213.61 30.02ZM252.47 31.06L252.47 35.63L231.63 35.63L231.63 35.63Q231.13 35.63 230.71 35.46L230.71 35.46L230.71 35.46Q230.29 35.28 229.98 34.97L229.98 34.97L229.98 34.97Q229.68 34.66 229.50 34.24L229.50 34.24L229.50 34.24Q229.32 33.82 229.32 33.33L229.32 33.33L229.32 10.42L233.89 10.42L233.89 31.06L252.47 31.06ZM278.98 31.06L278.98 35.63L258.13 35.63L258.13 35.63Q257.64 35.63 257.22 35.46L257.22 35.46L257.22 35.46Q256.80 35.28 256.49 34.97L256.49 34.97L256.49 34.97Q256.18 34.66 256.01 34.24L256.01 34.24L256.01 34.24Q255.83 33.82 255.83 33.33L255.83 33.33L255.83 10.42L260.40 10.42L260.40 31.06L278.98 31.06ZM304.91 31.06L304.91 35.63L288.42 35.63L288.42 35.63Q287.79 35.63 287.06 35.48L287.06 35.48L287.06 35.48Q286.33 35.33 285.62 35.02L285.62 35.02L285.62 35.02Q284.91 34.70 284.26 34.20L284.26 34.20L284.26 34.20Q283.61 33.70 283.10 32.99L283.10 32.99L283.10 32.99Q282.60 32.27 282.30 31.33L282.30 31.33L282.30 31.33Q282.01 30.39 282.01 29.21L282.01 29.21L282.01 16.84L282.01 16.84Q282.01 16.21 282.16 15.48L282.16 15.48L282.16 15.48Q282.30 14.75 282.62 14.04L282.62 14.04L282.62 14.04Q282.94 13.32 283.45 12.67L283.45 12.67L283.45 12.67Q283.96 12.02 284.67 11.52L284.67 11.52L284.67 11.52Q285.38 11.02 286.31 10.72L286.31 10.72L286.31 10.72Q287.24 10.42 288.42 10.42L288.42 10.42L304.91 10.42L304.91 14.99L288.42 14.99L288.42 14.99Q287.53 14.99 287.05 15.47L287.05 15.47L287.05 15.47Q286.58 15.94 286.58 16.88L286.58 16.88L286.58 29.21L286.58 29.21Q286.58 30.09 287.06 30.58L287.06 30.58L287.06 30.58Q287.54 31.06 288.42 31.06L288.42 31.06L304.91 31.06Z" transform="rotate(0 153.54500555992126 23.734999656677246)"></path><defs id="SvgjsDefs1070"></defs></svg></g></svg>